<svg xmlns="http://www.w3.org/2000/svg" xmlns:xlink="http://www.w3.org/1999/xlink" version="1.1" id="Layer_1" x="0px" y="0px" width="100px" height="84.409px" viewBox="0 -0.001 100 84.409" enable-background="new 0 -0.001 100 84.409" xml:space="preserve">
<path d="M7.843,56.07c-2.102-3.577-3.398-8.206-2.424-10.577c1.126-2.742,2.108,5.697,3.765,9.729  c4.013-2.387,9.382-4.377,15.707-5.816c-0.948-2.919-2.879-7.803-2.165-8.207c0.639-0.359,2.91,3.468,4.365,7.736  c1.57-0.314,3.19-0.598,4.859-0.846c-1.523-5.284-4.052-8.861-5.844-11.105c-3.395-4.249-8.566-3.113-13.445-2.366  c-3.332,0.513-6.707,1.497-8.619,3.322c-5.079,4.851-5.451,13.937-0.664,22.134C4.476,58.654,5.987,57.315,7.843,56.07z"/>
<path d="M11.784,32.912c2.023-0.232,7.5-0.18,6.569-8.275c-0.311-2.699-3.398-5.763-8.121-5.218  c-4.102,0.472-5.689,4.015-5.218,8.118C5.48,31.585,9.76,33.145,11.784,32.912z"/>
<path d="M41.228,24.813c0.478,4.048,4.762,5.593,6.786,5.354c2.023-0.239,7.5-0.202,6.544-8.295  c-0.32-2.698-3.416-5.753-8.139-5.194C42.321,17.164,40.743,20.712,41.228,24.813z"/>
<path d="M92.791,37.477c1.908,0.013,6.998,0.679,7.047-6.958c0.017-2.547-2.511-5.745-6.967-5.772  c-3.868-0.024-5.747,3.094-5.771,6.965C87.075,35.53,90.881,37.464,92.791,37.477z"/>
<path d="M57.757,47.145c0,0-0.442-7.409,1.099-9.193c3.5-4.055,9-11.808,7.582-23.167c-0.222-1.773-0.98-3.763-2.765-3.688  c-1.782,0.104-2.34,1.821-2.235,3.604c0.453,7.747-2.053,13.441-4.5,16.036c-1.926,2.042-4.273,2.237-9.792,2.237  c-3.412,0-6.218-1.21-8.338-3.597c-2.962-3.333-5.121-8.249-4.412-14.239c0.21-1.774-0.192-3.814-1.966-4.024  c-1.768-0.196-3.108,1.489-3.159,3.274c-0.375,13.25,6,18.546,7.5,22.108c1.408,3.342,0.801,10.913,0.801,10.913  c3.745-0.357,7.67-0.55,11.73-0.55C52.197,46.859,55.018,46.959,57.757,47.145z"/>
<path d="M44.104,9.35c0.157,0.442,0.573,0.719,1.017,0.719c0.119,0,0.24-0.021,0.359-0.062c0.562-0.198,0.856-0.815,0.657-1.376  l-2.381-6.726c-0.2-0.562-0.817-0.855-1.376-0.656c-0.562,0.198-0.856,0.815-0.657,1.377L44.104,9.35z"/>
<path d="M39.946,11.823c0.212,0.225,0.498,0.339,0.784,0.339c0.267,0,0.533-0.099,0.741-0.295c0.434-0.409,0.453-1.091,0.044-1.524  l-3.955-4.186c-0.41-0.434-1.093-0.453-1.524-0.043c-0.434,0.408-0.453,1.091-0.044,1.523L39.946,11.823z"/>
<path d="M55.744,12.839c0.32,0,0.639-0.143,0.852-0.417l3.371-4.336c0.365-0.47,0.281-1.146-0.189-1.512  c-0.471-0.368-1.146-0.281-1.514,0.189l-3.369,4.336c-0.367,0.47-0.281,1.146,0.188,1.512  C55.279,12.766,55.512,12.839,55.744,12.839z"/>
<path d="M50.304,10.119c0.064,0.01,0.127,0.016,0.188,0.016c0.515,0,0.97-0.369,1.062-0.893l1.401-7.979  c0.104-0.586-0.289-1.146-0.875-1.249c-0.593-0.1-1.146,0.291-1.249,0.877L49.43,8.87C49.327,9.456,49.718,10.016,50.304,10.119z"/>
<polygon points="49.765,68.641 49.766,68.646 48.706,68.845 45.721,69.408 48.514,73.353 52.982,70.187 49.352,65.673   49.603,67.475 49.821,68.63 "/>
<polygon points="44.014,67.689 47.484,67.035 46.708,62.921 46.488,61.753 46.136,59.885 40.754,60.901 41.572,65.237   41.796,66.423 42.103,68.05 42.848,67.91 "/>
<rect x="20.473" y="63.357" transform="matrix(0.7669 0.6417 -0.6417 0.7669 48.0356 -0.0669)" width="7.274" height="5.478"/>
<rect x="54.267" y="56.95" transform="matrix(0.1852 0.9827 -0.9827 0.1852 105.8338 -8.2702)" width="7.275" height="5.478"/>
<path d="M94.01,63.847c-0.059,0.033-0.112,0.066-0.172,0.1c-2.535,1.426-5.666,2.331-9.308,2.693  c-0.147,0.018-0.299,0.025-0.453,0.025c-2.28,0-5.028-2.02-5.294-4.722l-0.009-0.084l-0.002-0.085  c-0.028-2.2,1.942-3.817,5.022-4.121c1.165-0.114,2.208-0.282,3.171-0.509c-0.021-0.014-0.043-0.023-0.064-0.037  c-1.489-0.775-5.152-2.298-7.866-3.4c-8.013-2.676-18.477-4.301-29.934-4.301c-25.193,0-45.618,7.836-45.618,17.501  c0,9.666,20.424,17.5,45.618,17.5c25.194,0,45.617-7.834,45.617-17.5C94.719,65.862,94.467,64.841,94.01,63.847z M30.19,67.61  l-3.513,4.201l-1.283,1.534l-1.535-1.283l-5.58-4.668l-1.533-1.283l1.282-1.533l3.512-4.202l1.283-1.535l1.534,1.283l5.58,4.669  l1.534,1.283L30.19,67.61z M54.139,71.818l-4.469,3.166l-1.633,1.157l-1.156-1.634l-2.793-3.945l-0.532-0.752l-0.338,0.062  l-0.745,0.142l-1.967,0.37l-0.37-1.965l-0.306-1.625l-0.224-1.188L38.79,61.27l-0.371-1.966l1.965-0.37l5.382-1.016l1.966-0.371  l0.371,1.966l0.348,1.844l2.462,3.061l3.631,4.515l1.333,1.657L54.139,71.818z M54.294,66.109l-0.371-1.966l-1.348-7.148  l-0.371-1.966l1.965-0.37l5.381-1.017l1.968-0.37l0.369,1.966l1.35,7.148l0.369,1.967l-1.965,0.37l-5.382,1.017L54.294,66.109z   M70.062,75.476L63.79,75.72l-1.998,0.078L61.714,73.8l-0.187-4.719l-0.077-2l1.999-0.078l6.272-0.242l1.997-0.078l0.078,1.998  l0.185,4.719l0.078,1.999L70.062,75.476z"/>
<rect x="64.39" y="68.103" transform="matrix(0.0395 0.9992 -0.9992 0.0395 135.3007 1.7271)" width="4.723" height="6.275"/>
<path d="M99.995,46.54l-0.006-0.838c0-1.295-0.764-2.75-1.752-3.458c-1.961-1.408-6.568-2.472-9.691-2.472  c-1.473,0-2.799,0.383-3.959,0.765c-2.801,0.92-6.514,0.56-6.93-0.664c-0.533-1.569-0.336-6.535,0.473-10.953  c0.32-1.758,0.475-4.362-1.283-4.685c-1.754-0.318-3.441,0.843-3.764,2.601c-1.541,8.42-1.877,13.742-0.998,15.815  c1.064,2.512,5.527,3.891,8.674,3.859c0.84-0.008-0.506,3.533-1.658,5.322c4.146,1.271,7.728,2.811,10.592,4.555  c2.513-1.262,2.861-3.377,3.603-6.85c0.017-0.062,0.041-0.097,0.06-0.152c0.52-1.686,2.272-1.078,2.1,0.14  c-0.293,2.052-0.613,3.976-1.594,5.597c-0.553,0.914-1.324,1.729-2.42,2.416c-0.322,0.201-0.676,0.394-1.06,0.571  c-0.373,0.175-0.778,0.339-1.217,0.489c-0.313,0.107-0.646,0.211-0.996,0.307c-1.181,0.323-2.543,0.578-4.174,0.739  c-1.777,0.175-3.234,0.934-3.22,2.105c0.164,1.67,2.188,3.074,3.537,2.901c3.621-0.356,6.4-1.241,8.547-2.448  c0.123-0.068,0.244-0.139,0.361-0.209c0.316-0.188,0.619-0.385,0.904-0.586c0.295-0.209,0.58-0.423,0.846-0.644  c4.838-4.032,5.049-10.1,5.029-13.631C99.999,46.935,99.997,46.731,99.995,46.54z"/>
</svg>